<svg width="22" height="23" viewBox="0 0 22 23" fill="none" xmlns="http://www.w3.org/2000/svg">
<path d="M9.70069 5.52731C10.3961 5.059 10.955 4.6397 11.5538 4.28849C12.5746 3.68931 13.645 3.56076 14.7845 4.00681C16.8482 4.82879 17.9649 6.34308 18.2459 8.51606C18.4003 9.71314 17.8984 10.7219 17.2458 11.649C16.5632 12.6259 15.7911 13.538 15.0796 14.4983C14.0971 15.8134 13.4187 17.2556 13.2411 18.9141C13.2057 19.2401 13.0027 19.5485 12.9019 19.8003C12.4404 19.9693 12.1256 19.9558 11.877 19.6105C11.7318 19.415 11.5521 19.2443 11.3995 19.0535C10.7323 18.2255 9.90559 17.5844 9.03187 16.9912C7.72573 16.1068 6.37447 15.2896 5.14247 14.3009C4.11889 13.4852 3.2899 12.4517 2.71574 11.2755C2.06909 9.94158 1.9659 8.52286 2.55617 7.09055C3.23238 5.44522 5.56778 3.76901 7.96305 4.4708C8.45283 4.61414 8.88639 4.95586 9.33529 5.22088C9.46651 5.31124 9.58885 5.41384 9.70069 5.52731ZM11.8854 17.5229C11.9521 17.4399 12.0074 17.3484 12.0496 17.2507C12.5084 15.5576 13.4096 14.115 14.5172 12.7735C15.1849 11.9644 15.8137 11.1191 16.3987 10.245C17.3145 8.89525 17.0669 7.67278 16.1571 6.44989C15.8699 6.09575 15.5308 5.78712 15.1513 5.53448C14.419 5.00824 13.6112 4.91051 12.7514 5.20938C11.8698 5.51664 11.1146 5.98348 10.5453 6.7485C10.2269 7.17428 9.75795 7.18544 9.36023 6.83977C9.25458 6.74739 9.15949 6.64359 9.07671 6.53027C8.56186 5.83287 7.83322 5.66886 7.02629 5.69296C6.31996 5.7147 5.63368 5.93301 5.0446 6.32335C4.74928 6.50953 4.49909 6.75909 4.31216 7.05394C3.63754 8.20175 3.47094 9.42567 3.96496 10.6856C4.3966 11.8077 5.14563 12.7797 6.12058 13.4832C6.80354 13.9832 7.49489 14.4539 8.19754 14.9169C9.36974 15.688 10.5661 16.4201 11.5978 17.3843C11.6868 17.4436 11.7836 17.4902 11.8854 17.5229Z" fill="#FF0F82"/>
<path d="M11.8854 17.5228C11.7844 17.4891 11.6886 17.4416 11.6007 17.3817C10.569 16.4174 9.37259 15.6853 8.20039 14.9142C7.49488 14.4538 6.80439 13.976 6.12057 13.4831C5.14533 12.781 4.39551 11.8103 3.9626 10.6893C3.47008 9.4327 3.63518 8.20544 4.3098 7.05762C4.49673 6.76277 4.74692 6.51321 5.04224 6.32703C5.6316 5.93495 6.31878 5.71532 7.02629 5.6929C7.83321 5.6688 8.56521 5.83131 9.0767 6.53021C9.15949 6.64354 9.25457 6.74734 9.36022 6.83971C9.75795 7.18538 10.2269 7.17422 10.5453 6.74845C11.1146 5.98343 11.8731 5.51508 12.7514 5.20932C13.6112 4.91045 14.4189 5.00818 15.1513 5.53442C15.5308 5.78707 15.8699 6.0957 16.1571 6.44983C17.0669 7.67272 17.311 8.88737 16.3986 10.245C15.8122 11.1157 15.1849 11.9644 14.5171 12.7734C13.4096 14.115 12.5064 15.5531 12.0496 17.2506C12.0074 17.3483 11.9521 17.4399 11.8854 17.5228Z" fill="#FF0F82"/>
</svg>
